<?xml version="1.0" encoding="utf-8"?>
<!-- Generator: Adobe Illustrator 18.0.0, SVG Export Plug-In . SVG Version: 6.00 Build 0)  -->
<!DOCTYPE svg PUBLIC "-//W3C//DTD SVG 1.1//EN" "http://www.w3.org/Graphics/SVG/1.1/DTD/svg11.dtd">
<svg version="1.1" id="Layer_1" xmlns="http://www.w3.org/2000/svg" xmlns:xlink="http://www.w3.org/1999/xlink" x="0px" y="0px"
	 viewBox="0 0 505.8 119.9" enable-background="new 0 0 505.8 119.9" xml:space="preserve">
<path fill="#E98824" d="M336.5,88.2c-3,3.2-7.2,5.9-12.4,7.9c0.9,1.3,0.8,2.6,0.8,2.9c0,4.9-11.7,6.5-18.7,6.5
	c-8.8,0-19.7-1.8-21.9-8.5l-0.1-0.2c0,0-0.2-0.5-0.3-0.5c-0.1,0-0.3,0-0.6,0.1c-4,1.1-7,3.5-7,7.4c0,4,2.7,7.8,7.6,10.7
	c5.1,3,11.9,4.7,19.1,4.7l3,0h0c19.1-0.6,32.9-9.4,32.9-20.9C339,94.5,338.2,91.2,336.5,88.2C336.6,88.2,336.5,88.2,336.5,88.2"/>
<path fill="#E98824" d="M24.6,94.2C9.6,94.2,0,89.8,0,82.8c0-3.3,1.8-6,4.9-7.5l1-0.5l0.5,1c2,3.7,8.1,7.8,19.3,7.8
	C34.2,83.6,40,80,40,75c0-4.5-2.4-7-16.5-10.1C8.6,61.6,1.7,55.6,1.7,46.2C1.7,33.1,15,26,27.5,26C42.6,26,48,31.7,48,36.5
	c0,4.1-3.8,5.4-5.8,6L41,42.9l-0.4-1c-0.7-1.7-5.4-4.9-13.5-4.9c-3,0-12.7,0.5-12.7,7.6c0,3.7,0.9,6.3,13.1,9
	c17.5,3.9,24.7,10,24.7,20.8C52.2,86.1,40.8,94.2,24.6,94.2"/>
<path fill="#E98824" d="M67.8,119.9c-4,0-6.1-2.1-6.1-6V33.3c0-4,2.1-6,6.1-6h0.9c2.5,0,5.5,0.8,6,4.6l0.3,2.1l1.6-1.4
	c2.7-2.4,8.5-6.5,16.9-6.5c17.6,0,28,12.6,28,33.7c0,25.5-16.8,34.5-31.3,34.5c-5.7,0-10.7-1.6-13.9-2.9l-1.5-0.7v23.2
	c0,4-2.1,6-6.1,6H67.8z M91,37.6c-10.6,0-16.2,9.2-16.2,26.7v15.5l0.7,0.3c0.7,0.3,7.4,3.1,14.8,3.1c11.7,0,18.2-8.2,18.2-23.1
	C108.4,45.5,102.2,37.6,91,37.6"/>
<path fill="#E98824" d="M137,93.3c-4.2,0-6.1-1.9-6.1-6.1v-54c0-4,2-6,6.1-6h0.8c3.9,0,5.9,1.8,6.1,5.4l0.1,2.7l1.8-2
	c2.4-2.6,7.5-7,14.7-7c8.4,0,12.2,4.4,12.2,8.5c0,2.7-1,4.7-3.2,6.2l-0.7,0.5L168,41c-1.6-1.4-3.6-3.1-7.8-3.1
	c-11.1,0-16.1,10.9-16.1,21.7v27.6c0,4.2-1.9,6.1-6.1,6.1H137z"/>
<path fill="#E98824" d="M187.7,93.3c-4,0-6.1-2.1-6.1-6.1v-54c0-3.9,2.1-6,6.1-6h0.8c4,0,6.1,2.1,6.1,6v54c0,4-2,6.1-6.1,6.1H187.7z
	 M188.1,18.6c-4.6,0-8.3-3.7-8.3-8.3c0-4.6,3.7-8.4,8.3-8.4c4.5,0,8.3,3.8,8.3,8.4C196.4,14.9,192.7,18.6,188.1,18.6"/>
<path fill="#E98824" d="M259.5,93.3c-4,0-6-2.1-6-6.1V53.8c0-14.4-7.6-16.2-14.2-16.2c-9.9,0-16.2,8.4-16.2,21.4v28.3
	c0,4.1-2,6.1-6.2,6.1H216c-4.2,0-6.1-1.9-6.1-6.1V33.4c0-4,2.1-6.1,6.1-6.1h0.9c3.9,0,5.9,1.8,6.1,5.5l0.1,2.5l1.8-1.8
	c2.7-2.7,8.4-7.3,16.8-7.3c7.5,0,24.9,2.6,24.9,27.3v33.8c0,4.2-1.9,6.1-6.1,6.1H259.5z"/>
<path fill="#F7B718" d="M380.1,94.4c-15.2,0-32.9-8.9-32.9-34c0-25.3,17.7-34.2,32.9-34.2c13.5,0,22.5,6.3,22.5,12.2
	c0,3.8-2.4,6.2-6.6,6.7l-0.9,0.1l-0.4-0.8c-1.5-3.3-7.5-6.9-15.4-6.9c-11.8,0-18.8,8.6-18.8,22.9c0,16.9,10,22.8,18.6,22.8
	c10.9,0,14.6-4.4,16.4-7.8l0.3-0.6h0.7c4,0,7,2.8,7,6.5C403.5,87.7,394.7,94.4,380.1,94.4"/>
<path fill="#F7B718" d="M498.7,93.3c-4,0-6.1-2-6.1-6V54.1c0-11.1-4-16.5-12.2-16.5c-10.6,0-15.1,7.3-15.1,24.2v25.6c0,4-2,6-6.2,6
	h-0.9c-4,0-6.1-2-6.1-6V54.1c0-11-4.2-16.5-12.4-16.5c-10.1,0-14.9,7.8-14.9,23.9v25.9c0,4-2,6-6.2,6h-0.8c-4.1,0-6.1-1.9-6.1-6v-54
	c0-4.1,2-6.1,6.1-6.1h0.8c3.6,0,5.7,1.6,6.1,4.7l0.3,2.2l1.6-1.6c4-4.1,9.1-6.2,15.2-6.2c8.7,0,15.6,4,19.3,11.3l1,1.9l1-1.8
	c3.9-7.2,11.2-11.4,19.4-11.4c10.7,0,23.4,4.7,23.4,27.1v34c0,4-2.1,6-6.4,6H498.7z"/>
<path fill="#E98824" d="M335.7,62.9c-2.8,3.5-6.8,6.3-11.8,8.3c1.5,1.6,1,3,1,3.4c0,5-11.7,6.5-18.7,6.5c-8.8,0-19.7-1.8-21.9-8.5
	l-0.1-0.2c0,0-0.2-0.5-0.3-0.5c-0.1,0-0.3,0-0.6,0.1c-4,1.1-7,3.5-7,7.4c0,4,2.7,7.8,7.6,10.7c5.1,3,11.9,4.7,19.1,4.7l3,0h0
	c19.1-0.6,32.9-9.4,32.9-20.9c0-3.7-0.8-7.1-2.4-10C336.3,63.4,336.2,63.2,335.7,62.9"/>
<path fill="#E98824" d="M338.2,48.9c0-2.5-0.4-4.8-1.3-6.9l-0.1-0.3l0.1-0.4c0.9-4,1.4-9.2-1.8-11.8c-2.3-1.9-4.1-2.3-5.3-2.3
	c-1.9,0-3.5,1.1-4.9,3.2l-0.5,0.7l-0.8-0.3c-7.4-2.7-15-2.9-17.2-2.9c-18.5,0-31.9,9.2-31.9,22c0,17.7,18.8,20.3,30,20.3h3l0,0
	C325.9,69.5,338.2,60.9,338.2,48.9 M307,58.7h-0.9c-6.1,0-20.3-0.9-20.3-9.6c0-4,7.2-8.2,20.5-8.2c18.6,0,19.5,7.3,19.5,8.7
	C325.9,54,320,58.7,307,58.7"/>
</svg>
